<mxfile host="app.diagrams.net" agent="Mozilla/5.0 (Windows NT 10.0; Win64; x64) AppleWebKit/537.36 (KHTML, like Gecko) Chrome/132.0.0.0 YaBrowser/25.2.0.0 Safari/537.36" version="26.1.0">
  <diagram name="Страница — 1" id="PwETJufXTcm3jKJt-tVU">
    <mxGraphModel dx="502" dy="700" grid="1" gridSize="10" guides="1" tooltips="1" connect="1" arrows="1" fold="1" page="1" pageScale="1" pageWidth="827" pageHeight="1169" math="0" shadow="0">
      <root>
        <mxCell id="0" />
        <mxCell id="1" parent="0" />
        <mxCell id="NlzuDNZw_1ZwSuoVL3XZ-1" value="&lt;p data-pm-slice=&quot;1 1 [&amp;quot;list&amp;quot;,{&amp;quot;spread&amp;quot;:false,&amp;quot;start&amp;quot;:2861,&amp;quot;end&amp;quot;:3035},&amp;quot;regular_list_item&amp;quot;,{&amp;quot;start&amp;quot;:2861,&amp;quot;end&amp;quot;:2900}]&quot;&gt;Сервер базы данных (DBeaver/Supabase)&lt;/p&gt;" style="verticalAlign=top;align=left;spacingTop=8;spacingLeft=2;spacingRight=12;shape=cube;size=10;direction=south;fontStyle=4;html=1;whiteSpace=wrap;" vertex="1" parent="1">
          <mxGeometry x="70" y="280" width="180" height="140" as="geometry" />
        </mxCell>
        <mxCell id="NlzuDNZw_1ZwSuoVL3XZ-2" value="&lt;p data-pm-slice=&quot;1 1 [&amp;quot;list&amp;quot;,{&amp;quot;spread&amp;quot;:false,&amp;quot;start&amp;quot;:2861,&amp;quot;end&amp;quot;:3035},&amp;quot;regular_list_item&amp;quot;,{&amp;quot;start&amp;quot;:2861,&amp;quot;end&amp;quot;:2900}]&quot;&gt;Сервер приложения&lt;/p&gt;" style="verticalAlign=top;align=left;spacingTop=8;spacingLeft=2;spacingRight=12;shape=cube;size=10;direction=south;fontStyle=4;html=1;whiteSpace=wrap;" vertex="1" parent="1">
          <mxGeometry x="324" y="290" width="180" height="120" as="geometry" />
        </mxCell>
        <mxCell id="NlzuDNZw_1ZwSuoVL3XZ-3" value="&lt;p data-pm-slice=&quot;1 1 [&amp;quot;list&amp;quot;,{&amp;quot;spread&amp;quot;:false,&amp;quot;start&amp;quot;:2861,&amp;quot;end&amp;quot;:3035},&amp;quot;regular_list_item&amp;quot;,{&amp;quot;start&amp;quot;:2952,&amp;quot;end&amp;quot;:3035}]&quot;&gt;Клиентские устройства&lt;/p&gt;" style="verticalAlign=top;align=left;spacingTop=8;spacingLeft=2;spacingRight=12;shape=cube;size=10;direction=south;fontStyle=4;html=1;whiteSpace=wrap;" vertex="1" parent="1">
          <mxGeometry x="190" y="500" width="180" height="120" as="geometry" />
        </mxCell>
        <mxCell id="NlzuDNZw_1ZwSuoVL3XZ-4" value="API сервер" style="shape=module;align=left;spacingLeft=20;align=center;verticalAlign=top;whiteSpace=wrap;html=1;" vertex="1" parent="1">
          <mxGeometry x="230" y="560" width="100" height="50" as="geometry" />
        </mxCell>
        <mxCell id="NlzuDNZw_1ZwSuoVL3XZ-5" value="БД" style="shape=module;align=left;spacingLeft=20;align=center;verticalAlign=top;whiteSpace=wrap;html=1;" vertex="1" parent="1">
          <mxGeometry x="130" y="350" width="100" height="50" as="geometry" />
        </mxCell>
        <mxCell id="NlzuDNZw_1ZwSuoVL3XZ-6" value="" style="endArrow=open;endFill=1;endSize=12;html=1;rounded=0;fontSize=12;curved=1;" edge="1" parent="1" source="NlzuDNZw_1ZwSuoVL3XZ-1" target="NlzuDNZw_1ZwSuoVL3XZ-2">
          <mxGeometry width="160" relative="1" as="geometry">
            <mxPoint x="210" y="460" as="sourcePoint" />
            <mxPoint x="370" y="460" as="targetPoint" />
          </mxGeometry>
        </mxCell>
        <mxCell id="NlzuDNZw_1ZwSuoVL3XZ-7" value="" style="endArrow=open;endFill=1;endSize=12;html=1;rounded=0;fontSize=12;edgeStyle=orthogonalEdgeStyle;" edge="1" parent="1" source="NlzuDNZw_1ZwSuoVL3XZ-2" target="NlzuDNZw_1ZwSuoVL3XZ-1">
          <mxGeometry width="160" relative="1" as="geometry">
            <mxPoint x="240" y="460" as="sourcePoint" />
            <mxPoint x="314" y="462" as="targetPoint" />
            <Array as="points">
              <mxPoint x="290" y="380" />
              <mxPoint x="290" y="380" />
            </Array>
          </mxGeometry>
        </mxCell>
        <mxCell id="NlzuDNZw_1ZwSuoVL3XZ-9" value="" style="endArrow=open;endFill=1;endSize=12;html=1;rounded=0;fontSize=12;edgeStyle=orthogonalEdgeStyle;" edge="1" parent="1" source="NlzuDNZw_1ZwSuoVL3XZ-3" target="NlzuDNZw_1ZwSuoVL3XZ-2">
          <mxGeometry width="160" relative="1" as="geometry">
            <mxPoint x="250" y="490" as="sourcePoint" />
            <mxPoint x="250" y="450" as="targetPoint" />
            <Array as="points">
              <mxPoint x="360" y="450" />
              <mxPoint x="400" y="450" />
            </Array>
          </mxGeometry>
        </mxCell>
        <mxCell id="NlzuDNZw_1ZwSuoVL3XZ-10" value="" style="endArrow=open;endFill=1;endSize=12;html=1;rounded=0;fontSize=12;edgeStyle=orthogonalEdgeStyle;" edge="1" parent="1" source="NlzuDNZw_1ZwSuoVL3XZ-2" target="NlzuDNZw_1ZwSuoVL3XZ-3">
          <mxGeometry width="160" relative="1" as="geometry">
            <mxPoint x="370" y="510" as="sourcePoint" />
            <mxPoint x="424" y="420" as="targetPoint" />
            <Array as="points">
              <mxPoint x="380" y="440" />
              <mxPoint x="340" y="440" />
            </Array>
          </mxGeometry>
        </mxCell>
      </root>
    </mxGraphModel>
  </diagram>
</mxfile>
